<?xml version="1.0" encoding="utf-8"?>
<!-- Generator: Adobe Illustrator 19.2.1, SVG Export Plug-In . SVG Version: 6.00 Build 0)  -->
<svg version="1.1" id="layer" xmlns="http://www.w3.org/2000/svg" xmlns:xlink="http://www.w3.org/1999/xlink" x="0px" y="0px"
	 viewBox="0 0 652 652" style="enable-background:new 0 0 652 652;" xml:space="preserve">
<style type="text/css">
	.st0{fill:#EE303C;}
</style>
<g>
	<path class="st0" d="M415.8,268.6h-19.4c-1.1,0-1.9,0.9-1.9,1.9v43h-19.7v-43c0-1.1-0.9-1.9-1.9-1.9h-19.4c-1.1,0-1.9,0.9-1.9,1.9
		v110.7c0,1.1,0.9,1.9,1.9,1.9h19.4c1.1,0,1.9-0.9,1.9-1.9v-44.5h19.7v44.5c0,1.1,0.9,1.9,1.9,1.9h19.4c1.1,0,1.9-0.9,1.9-1.9V270.6
		C417.7,269.5,416.9,268.6,415.8,268.6"/>
	<path class="st0" d="M250.7,268.6h-9.6h-10.3c-1.1,0-1.9,0.8-1.9,1.7v51.4v27.5l0,0.1c0,3.8-0.9,6.7-2.6,8.9c-1.6,2-3.7,3-6.5,3
		c-2.8,0-4.9-1-6.5-3c-1.7-2.1-2.6-5.1-2.6-8.9v-0.1l0-27.5v-51.4c0-0.9-0.9-1.7-1.9-1.7h-10.8h-9.1c-1.1,0-1.9,0.8-1.9,1.7v51.4
		v27.8c0,10.4,2.5,19.7,8.5,26c6,6.4,14.6,9.6,24.4,9.6c9.9,0,18.4-3.2,24.4-9.6c5.9-6.3,8.5-15.5,8.5-26v-27.8v-51.4
		C252.6,269.4,251.7,268.6,250.7,268.6"/>
	<path class="st0" d="M58.4,266.8L58.4,266.8c-9.9,0-18.4,3.2-24.4,9.5c-5.9,6.3-8.5,15.5-8.5,26v19.5V345v2.9v1.6
		c0,10.4,2.5,19.7,8.5,26c6,6.4,14.6,9.5,24.4,9.5c9.9,0,18.4-3.2,24.4-9.5c5.9-6.3,8.5-15.5,8.5-26V345v-1.2v-14.9v-5.3
		c0-1.1-0.9-2-2-2H60.4c-1.1,0-2.1,0.9-2.1,2v19.3c0,1.1,1,2,2.1,2H68v0.5v3.9c0,4-0.9,7.1-2.7,9.4c-1.7,2.1-3.9,3.1-6.9,3.1
		c-2.9,0-5.2-1-6.9-3.1c-1.8-2.3-2.8-5.4-2.8-9.4V345v-23.3v-19.3c0-4,1-7.1,2.8-9.4c1.7-2.1,3.9-3.1,6.9-3.1c2.9,0,5.2,1,6.9,3.1
		c1.8,2.3,2.7,5.4,2.7,9.4l0,4.4c0,0.9,0.9,1.7,1.9,1.7h19.4c1.1,0,1.9-0.8,1.9-1.7v-4.6c0-10.4-2.5-19.7-8.5-26
		C76.8,269.9,68.2,266.8,58.4,266.8"/>
	<path class="st0" d="M325.6,324c3.6-3.2,9.4-11.4,9.4-21.5c0-11.7-4.4-19.2-8.1-23.4c-6-6.8-14.5-10.5-24.1-10.5l-18.1,0h-13
		c-1.1,0-1.9,0.9-1.9,1.9v110.7c0,1.1,0.9,1.9,1.9,1.9h11.9l20.6,0c10.2,0,19.6-4.1,25.6-11.7c3.5-4.4,7.3-12,7.3-23.5
		C337,334.7,328.8,326.5,325.6,324 M293,291.9h9.8c2.9,0,5,0.8,6.5,2.6c1.6,1.8,2.3,4.5,2.3,8c0,3.7-0.8,6.5-2.4,8.4
		c-1.6,1.8-3.7,2.7-6.5,2.7H293V291.9z M311.2,356.9c-1.6,2-3.9,3-7,3H293v-23.6h11.2c3,0,5.2,1,6.9,3.1c1.8,2.2,2.7,5,2.7,8.7
		C313.7,351.9,312.9,354.9,311.2,356.9"/>
	<path class="st0" d="M158.8,333.9L158.8,333.9c2-1.4,3.8-3.1,5.5-5c4-4.5,8.8-12.5,8.8-24.8c0-12-4.8-19.9-8.8-24.4
		c-5.9-6.7-14.1-10.5-23.3-11v-0.1h-1.7c-0.1,0-0.2,0-0.3,0v0h-30.8c-1.1,0-1.9,0.9-1.9,1.9v110.7c0,1.1,0.9,1.9,1.9,1.9h19.4
		c1.1,0,1.9-0.9,1.9-1.9V340h6.9l12.3,41.8c0.2,0.8,1,1.4,1.9,1.4h20.6c0.6,0,1.2-0.3,1.6-0.8c0.4-0.5,0.5-1.1,0.3-1.7L158.8,333.9z
		 M146.8,313.5c-1.9,2.2-4.5,3.2-7.9,3.2h-9.4v-24.8h9.4c3.4,0,5.9,1,7.9,3.2c2,2.2,2.9,5.2,2.9,9
		C149.7,308.1,148.7,311.3,146.8,313.5"/>
	<path class="st0" d="M573.8,324c3.6-3.2,9.4-11.4,9.4-21.5c0-11.7-4.4-19.2-8.1-23.4c-6-6.8-14.5-10.5-24.1-10.5l-18.1,0h-13
		c-1.1,0-1.9,0.9-1.9,1.9v110.7c0,1.1,0.9,1.9,1.9,1.9h11.9l20.6,0c10.2,0,19.6-4.1,25.6-11.7c3.5-4.4,7.3-12,7.3-23.5
		C585.3,334.7,577,326.5,573.8,324 M541.2,291.9h9.8c2.9,0,5,0.8,6.5,2.6c1.6,1.8,2.3,4.5,2.3,8c0,3.7-0.8,6.5-2.4,8.4
		c-1.6,1.8-3.7,2.7-6.5,2.7h-9.8V291.9z M559.4,356.9c-1.6,2-3.9,3-7,3h-11.2v-23.6h11.2c3,0,5.2,1,6.9,3.1c1.8,2.2,2.6,5,2.6,8.7
		C561.9,351.9,561.1,354.9,559.4,356.9"/>
	<path class="st0" d="M498.8,268.6h-9.6h-10.3c-1.1,0-1.9,0.8-1.9,1.7v51.4v27.5l0,0.1c0,3.8-0.9,6.7-2.6,8.9c-1.6,2-3.7,3-6.5,3
		c-2.8,0-4.9-1-6.5-3c-1.7-2.1-2.6-5.1-2.6-8.9v-0.1l0-27.5v-51.4c0-0.9-0.9-1.7-1.9-1.7h-10.8h-9.1c-1.1,0-1.9,0.8-1.9,1.7v51.4
		v27.8c0,10.4,2.5,19.7,8.5,26c6,6.4,14.6,9.6,24.4,9.6s18.4-3.2,24.4-9.6c5.9-6.3,8.5-15.5,8.5-26v-27.8v-51.4
		C500.7,269.4,499.8,268.6,498.8,268.6"/>
	<path class="st0" d="M592.8,271.3v-2.6H606v2.6h-5.1v12.9h-3.1v-12.9H592.8z M613.1,268.7l4,11.1l4-11.1h4.4v15.5h-2.9v-12.5
		l-4.3,12.5h-2.5l-4.3-12.5v12.5h-2.9v-15.5H613.1z"/>
</g>
</svg>
