<?xml version="1.0" encoding="utf-8"?>
<!-- Generator: Adobe Illustrator 19.2.1, SVG Export Plug-In . SVG Version: 6.00 Build 0)  -->
<svg version="1.1" id="layer" xmlns="http://www.w3.org/2000/svg" xmlns:xlink="http://www.w3.org/1999/xlink" x="0px" y="0px"
	 viewBox="0 0 652 652" style="enable-background:new 0 0 652 652;" xml:space="preserve">
<path d="M616.1,147.6c0-6.6,0-12.1,0-18.7s-1.1-8.8-8.8-6.6c-7.7,2.2-15.4,4.4-23.1,6.6c-4.4,1.1-9.9,1.1-9.9,7.7
	c0,14.3,0,28.6,0,44c0,2.2,1.1,3.3,4.4,3.3c2.2,0,5.5-1.1,7.7-1.1c7.7-2.2,15.4-4.4,23.1-6.6c5.5-1.1,6.6-4.4,6.6-9.9
	C616.1,159.7,616.1,153.1,616.1,147.6 M575.5,286.1c5.5-1.1,11-2.2,16.5-3.3c6.6-1.1,13.2-3.3,19.8-5.5c2.2-1.1,4.4-4.4,4.4-7.7
	c1.1-3.3,0-7.7,0-11c0-6.6,2.2-9.9,8.8-12.1c9.9-3.3,19.8-5.5,29.7-7.7c4.4-1.1,6.6,1.1,6.6,5.5c0,12.1,0,25.3-1.1,37.4
	c-2.2,16.5-13.2,27.5-28.6,34.1c-26.4,9.9-53.9,20.9-80.3,31.9c-17.6,6.6-34.1,13.2-51.7,20.9c-17.6,6.6-36.3,14.3-53.9,20.9
	c-24.2,9.9-49.5,19.8-73.7,29.7c-17.6,6.6-35.2,14.3-52.8,20.9c-24.2,9.9-48.4,19.8-73.7,28.6c-17.6,7.7-35.2,14.3-52.8,22
	c-24.2,9.9-49.5,18.7-73.7,28.6c-18.7,7.7-38.5,15.4-57.2,23.1C39,552.2,15.9,561-7.2,569.8c-1.1,0-1.1,1.1-2.2,1.1
	c-6.6,2.2-9.9,1.1-9.9-6.6c0-35.2,0-71.5,0-106.6c0-7.7,2.2-9.9,8.8-12.1c16.5-4.4,33-8.8,49.5-13.2c6.6-2.2,14.3-3.3,20.9-5.5
	c5.5-1.1,7.7-4.4,7.7-9.9c0-8.8,0-17.6,0-27.5c0-3.3-1.1-5.5-4.4-5.5c-18.7-4.4-37.4-7.7-56.1-12.1c-13.2-3.3-20.9-13.2-24.2-26.4
	c-1.1-4.4-2.2-8.8-2.2-14.3c0-16.5,0-31.9,0-48.4c0-18.7,12.1-37.4,30.8-42.9c11-4.4,22-6.6,33-8.8c11-3.3,22-6.6,33-9.9
	c19.8-4.4,34.1,4.4,35.2,25.3c0,11,0,22,0,33s-2.2,13.2-12.1,16.5c-8.8,2.2-16.5,4.4-25.3,6.6c-4.4,1.1-7.7-2.2-7.7-6.6
	c0-6.6,0-13.2,0-20.9c0-3.3-2.2-5.5-6.6-4.4c-7.7,1.1-15.4,3.3-23.1,5.5c0,0-1.1,0-1.1,1.1c-12.1,3.3-12.1,4.4-12.1,16.5
	c0,7.7,0,15.4,0,24.2c0,5.5,1.1,6.6,6.6,7.7c15.4,3.3,30.8,6.6,45.1,9.9c6.6,1.1,12.1,2.2,17.6,5.5c13.2,6.6,17.6,18.7,18.7,33
	c0,15.4,0,30.8,0,47.3c0,3.3-1.1,6.6-2.2,11c3.3-1.1,6.6-1.1,8.8-2.2c9.9-2.2,18.7-5.5,28.6-7.7c1.1-1.1,2.2-2.2,2.2-4.4
	c1.1,0,0-1.1,0-2.2c0-68.2,0-135.2,0-203.4c0-7.7,1.1-11,9.9-13.2c8.8-2.2,16.5-4.4,25.3-6.6c6.6-2.2,8.8,0,8.8,7.7
	c0,61.6,0,123.1,0,184.7v5.5c5.5-1.1,11-3.3,16.5-4.4c8.8-2.2,18.7-5.5,27.5-7.7c5.5-1.1,8.8,1.1,8.8,6.6c0,3.3,0,6.6,0,9.9
	c6.6-1.1,11-2.2,16.5-4.4h1.1c2.2-1.1,6.6-1.1,7.7-3.3s0-6.6,0-9.9c0-39.6,0-80.3,0-119.8c0-7.7,3.3-11,11-13.2
	c7.7-2.2,15.4-4.4,24.2-6.6c6.6-2.2,9.9,0,9.9,7.7c0,41.8,0,83.6,0,125.3c0,1.1,0,3.3,0,5.5c6.6-1.1,13.2-3.3,19.8-4.4
	c5.5-2.2,11-4.4,16.5-5.5c4.4,0,5.5-2.2,5.5-6.6c0-58.3,0-116.5,0-175.9c0-9.9,2.2-19.8,7.7-28.6c6.6-9.9,15.4-16.5,26.4-18.7
	c11-3.3,23.1-6.6,34.1-9.9c8.8-2.2,17.6-4.4,27.5-6.6c3.3-1.1,7.7-1.1,12.1-2.2c13.2-1.1,23.1,12.1,23.1,22
	c1.1,18.7,1.1,37.4,1.1,57.2c0,4.4-4.4,7.7-11,9.9c-7.7,2.2-16.5,4.4-24.2,6.6c-6.6,1.1-9.9,0-9.9-7.7c0-8.8,0-18.7,0-27.5
	c0-3.3,0-6.6,0-11c-6.6,1.1-12.1,2.2-17.6,3.3s-11,3.3-15.4,4.4c-6.6,1.1-9.9,4.4-9.9,11c0,47.3,0,93.4,0,139.6
	c0,6.6,2.2,7.7,7.7,6.6c9.9-3.3,18.7-5.5,27.5-7.7c4.4-1.1,7.7-3.3,7.7-7.7c0-3.3,0-7.7,0-11c1.1-9.9,2.2-12.1,12.1-14.3
	c7.7-2.2,15.4-4.4,23.1-6.6c6.6-1.1,9.9,0,9.9,7.7c0,9.9,0,20.9,0,30.8c0,2.2,0,4.4,0,6.6c8.8-3.3,17.6-5.5,26.4-7.7
	c3.3-1.1,5.5-2.2,8.8-2.2c3.3,0,3.3-2.2,3.3-4.4c0-2.2,1.1-3.3,1.1-4.4c0-59.4-1.1-118.7,0-178.1c0-18.7,9.9-33,26.4-40.7
	c9.9-4.4,22-6.6,31.9-8.8c14.3-4.4,27.5-7.7,40.7-11c16.5-4.4,31.9,6.6,31.9,23.1c0,26.4,0,52.8,0,79.2
	c-1.1,17.6-15.4,36.3-34.1,40.7c-14.3,3.3-27.5,7.7-40.7,11c-1.1,0-2.2,0-4.4,1.1c-3.3,1.1-7.7,2.2-7.7,7.7c0,15.4,0,30.8,0,46.2
	C574.4,282.8,574.4,283.9,575.5,286.1 M317.1,179.5c0,4.4,0,8.8,0,13.2c0,5.5-2.2,8.8-7.7,9.9c-8.8,3.3-17.6,5.5-26.4,7.7
	c-7.7,2.2-11,0-11-8.8c0-6.6,1.1-13.2,0-19.8c0-13.2,4.4-13.2,14.3-16.5c7.7-2.2,14.3-4.4,22-6.6c4.4-1.1,8.8,2.2,8.8,6.6
	S317.1,175.1,317.1,179.5L317.1,179.5"/>
</svg>
